<svg width="253" height="62" viewBox="0 0 253 62" fill="none" xmlns="http://www.w3.org/2000/svg">
<path d="M33.6528 38.4865L33.7281 17.4589C33.7281 17.4589 23.765 19.5519 24.8768 28.6234L18.1927 28.6293C17.8982 28.6293 17.6049 28.607 17.3164 28.5516C16.9371 28.4786 16.6839 28.3808 16.3871 28.2171C15.2611 27.5976 14.949 25.7284 17.148 24.0347L17.1892 24.0064L39.3899 10.7689C39.5207 10.6911 39.6008 10.5498 39.6019 10.3978L39.6361 1.4358C39.6361 1.19552 39.4418 1 39.2015 1L0.629003 1.01649C0.388728 1.01649 0.194388 1.21201 0.195566 1.45228L0.234432 15.6898C0.234432 15.9301 0.429952 16.1232 0.670228 16.1232L22.3951 16.0431C23.4293 16.0396 23.805 17.4047 22.9146 17.93L0.321593 31.2735C0.190855 31.3501 0.110764 31.4891 0.108408 31.641L4.68726e-05 38.0719C-0.00348659 38.3146 0.193211 38.5136 0.435842 38.5124L28.3396 38.3994" fill="#0D0C0D"/>
<path d="M47.3732 41.4747L23.4175 41.3616C23.4175 41.3616 22.3939 48.9739 27.4044 50.7382C28.0145 50.9538 29.4785 51.0162 30.3572 51.0445H43.3698C43.3698 51.0445 49.3154 51.0445 51.1976 52.3825C52.598 53.3777 53.9442 54.6898 51.7983 60.6319C51.6805 60.957 51.823 61.3775 52.1292 61.5389C52.3389 61.6496 52.6015 61.6625 52.8842 61.3799C53.5591 60.705 57.8322 53.6157 53.896 45.4098C53.896 45.4098 52.3683 41.8846 47.3732 41.4735V41.4747Z" fill="#0D0C0D"/>
<path d="M39.0731 18.2433C39.1025 18.2893 39.1343 18.3317 39.1661 18.3682C39.218 18.4294 39.2874 18.4706 39.3569 18.5107C40.318 19.0654 41.3581 19.4765 42.2461 20.5118C43.2108 21.6366 43.6454 22.838 43.8527 23.5647C44.1742 24.6895 44.656 26.1359 44.4958 29.0286C44.3238 32.1145 43.2096 35.9389 39.6632 36.9106C38.3958 37.2581 38.7103 38.0272 39.0319 38.1886C39.1273 38.2368 39.5136 38.3487 39.9965 38.3487C44.3297 38.3487 46.6265 37.2086 46.8467 37.0649C46.8573 37.0578 46.8679 37.052 46.8797 37.0461C50.4638 35.1368 51.4261 33.8707 52.3247 31.1758C53.0444 29.0157 53.2246 25.5529 51.7629 22.7402C50.3013 19.9288 48.0822 18.3729 44.4981 17.6191C41.4452 16.976 40.0189 17.2881 39.4205 17.4236C39.0554 17.506 38.8728 17.9288 39.0766 18.2433H39.0731Z" fill="#0D0C0D"/>
<path d="M54.9654 19.48C57.1706 19.48 58.9582 17.6924 58.9582 15.4872C58.9582 13.2821 57.1706 11.4944 54.9654 11.4944C52.7602 11.4944 50.9726 13.2821 50.9726 15.4872C50.9726 17.6924 52.7602 19.48 54.9654 19.48Z" fill="#0D0C0D"/>
<path d="M245.05 36.915C242.42 36.915 240.379 36.0952 238.925 34.4556C237.502 32.7851 236.79 30.5114 236.79 27.6345V5.96445L246.581 4.52597V26.9384C246.581 27.8046 246.782 28.4388 247.184 28.8409C247.618 29.2121 248.36 29.3978 249.412 29.3978C250.185 29.3978 250.943 29.2121 251.685 28.8409L252.01 35.3373C249.938 36.3891 247.618 36.915 245.05 36.915Z" fill="black"/>
<path d="M217.744 36.977C215.733 36.977 213.846 36.4511 212.083 35.3993C210.35 34.3166 208.958 32.8626 207.906 31.0375C206.855 29.1814 206.329 27.1242 206.329 24.8659C206.329 22.6386 206.855 20.6278 207.906 18.8336C208.958 17.0084 210.366 15.5854 212.129 14.5646C213.892 13.5437 215.764 13.0333 217.744 13.0333C219.352 13.0333 220.837 13.4818 222.198 14.3789C223.59 15.2761 224.642 16.6217 225.354 18.416V13.0333H235.098L235.098 36.977H225.354L225.354 32.2903C223.807 35.4148 221.27 36.977 217.744 36.977ZM220.76 29.6454C221.997 29.6454 223.049 29.2123 223.915 28.3461C224.812 27.449 225.292 26.3972 225.354 25.1907V24.8195C225.292 23.5821 224.797 22.5303 223.869 21.6641C222.972 20.798 221.935 20.3649 220.76 20.3649C219.461 20.3649 218.347 20.8289 217.419 21.757C216.522 22.6541 216.073 23.7368 216.073 25.0051C216.073 26.3044 216.537 27.4026 217.465 28.2997C218.393 29.1968 219.492 29.6454 220.76 29.6454Z" fill="black"/>
<path d="M197.545 36.977C195.07 36.977 192.874 36.482 190.956 35.4921C189.069 34.4713 187.584 33.0482 186.501 31.2231C185.449 29.3979 184.923 27.3253 184.923 25.0051C184.923 22.7778 185.48 20.7516 186.594 18.9264C187.707 17.1012 189.223 15.6627 191.141 14.611C193.059 13.5592 195.194 13.0333 197.545 13.0333C200.545 13.0333 202.912 13.652 204.644 14.8894L203.763 21.0609C201.999 20.535 200.545 20.2721 199.401 20.2721C197.916 20.2721 196.74 20.7052 195.874 21.5713C195.008 22.4066 194.575 23.5512 194.575 25.0051C194.575 26.4591 195.008 27.6191 195.874 28.4853C196.74 29.3515 197.885 29.7846 199.308 29.7846C200.545 29.7846 201.999 29.5216 203.67 28.9958L204.552 35.4921C203.5 36.018 202.433 36.3892 201.35 36.6058C200.267 36.8533 198.999 36.977 197.545 36.977Z" fill="black"/>
<path d="M177.133 36.9284C174.534 36.9284 172.508 36.0931 171.054 34.4226C169.6 32.7521 168.873 30.4784 168.873 27.6015V13.3095H178.711V27.1838C178.711 27.8953 178.896 28.4522 179.267 28.8543C179.67 29.2255 180.18 29.4112 180.799 29.4112C181.417 29.4112 182.052 29.2255 182.701 28.8543L183.212 35.3043C182.531 35.8302 181.634 36.2323 180.52 36.5108C179.438 36.7892 178.308 36.9284 177.133 36.9284ZM173.792 9.82927C172.338 9.82927 171.101 9.38071 170.08 8.4836C169.09 7.55554 168.595 6.42641 168.595 5.09621C168.595 3.766 169.121 2.65234 170.172 1.75522C171.224 0.858104 172.431 0.409546 173.792 0.409546C175.215 0.409546 176.437 0.873572 177.458 1.80162C178.509 2.72967 179.035 3.82787 179.035 5.09621C179.035 6.45735 178.509 7.58648 177.458 8.4836C176.406 9.38071 175.184 9.82927 173.792 9.82927Z" fill="black"/>
<path d="M139.505 4.93762H149.296V18.4872C149.977 16.8476 150.998 15.5947 152.359 14.7286C153.751 13.8314 155.421 13.3829 157.37 13.3829C160.34 13.3829 162.66 14.4502 164.331 16.5847C166.032 18.6883 166.883 21.6116 166.883 25.3548V36.9554H157.138V24.3803C157.138 23.0501 156.844 22.0292 156.257 21.3177C155.7 20.6062 154.911 20.2505 153.89 20.2505C153.148 20.2505 152.421 20.498 151.709 20.9929C150.998 21.4569 150.41 22.1375 149.946 23.0346C149.513 23.9317 149.296 24.9526 149.296 26.0972V36.9554H139.505V4.93762Z" fill="black"/>
<path d="M109.044 13.0333H118.835V17.7199C120.32 14.5955 122.841 13.0333 126.398 13.0333C128.471 13.0333 130.374 13.5592 132.106 14.611C133.869 15.6318 135.246 17.0548 136.236 18.88C137.257 20.7052 137.767 22.7469 137.767 25.0051C137.767 27.2634 137.241 29.3051 136.189 31.1303C135.168 32.9554 133.776 34.3939 132.013 35.4457C130.281 36.4666 128.425 36.977 126.445 36.977C122.918 36.977 120.382 35.4148 118.835 32.2903V44.2622H109.044V13.0333ZM123.475 29.6454C124.743 29.6454 125.826 29.1814 126.723 28.2533C127.62 27.3253 128.069 26.2425 128.069 25.0051C128.069 23.7059 127.605 22.6077 126.677 21.7105C125.78 20.8134 124.712 20.3649 123.475 20.3649C122.207 20.3649 121.124 20.8134 120.227 21.7105C119.33 22.5767 118.881 23.6131 118.881 24.8195V25.0051C118.881 26.3044 119.33 27.4026 120.227 28.2997C121.155 29.1968 122.238 29.6454 123.475 29.6454Z" fill="black"/>
<path d="M89.9972 36.977C87.9865 36.977 86.0994 36.4511 84.3361 35.3993C82.6038 34.3166 81.2117 32.8626 80.1599 31.0375C79.1081 29.1814 78.5822 27.1242 78.5822 24.8659C78.5822 22.6386 79.1081 20.6278 80.1599 18.8336C81.2117 17.0084 82.6192 15.5854 84.3825 14.5646C86.1458 13.5437 88.0174 13.0333 89.9972 13.0333C91.6059 13.0333 93.0908 13.4818 94.4519 14.3789C95.844 15.2761 96.8958 16.6217 97.6073 18.416V13.0333H107.352V36.977H97.6073V32.2903C96.0605 35.4148 93.5238 36.977 89.9972 36.977ZM93.0134 29.6454C94.2508 29.6454 95.3026 29.2123 96.1688 28.3461C97.0659 27.449 97.5454 26.3972 97.6073 25.1907V24.8195C97.5454 23.5821 97.0504 22.5303 96.1224 21.6641C95.2253 20.798 94.1889 20.3649 93.0134 20.3649C91.7141 20.3649 90.6005 20.8289 89.6724 21.757C88.7753 22.6541 88.3268 23.7368 88.3268 25.0051C88.3268 26.3044 88.7908 27.4026 89.7188 28.2997C90.6469 29.1968 91.7451 29.6454 93.0134 29.6454Z" fill="black"/>
<path d="M60.7444 13.7076H70.5353V18.4407C71.2468 16.6155 72.2058 15.2699 73.4123 14.4037C74.6497 13.5066 76.0882 13.058 77.7277 13.058V20.5443C74.7889 20.5443 73.9691 20.9465 72.577 21.5961C71.2159 22.2148 70.5353 23.2047 70.5353 24.5659V36.6305H60.7444V13.7076Z" fill="black"/>
</svg>
