<svg width="120" height="30" viewBox="0 0 120 30" fill="none" xmlns="http://www.w3.org/2000/svg">
<path d="M15.9618 18.3138L15.9975 8.34019C15.9975 8.34019 11.2719 9.33292 11.7993 13.6356L8.62895 13.6384C8.48926 13.6384 8.35015 13.6278 8.21331 13.6015C8.03341 13.5669 7.91331 13.5205 7.77254 13.4429C7.23847 13.1491 7.09044 12.2625 8.13344 11.4591L8.15298 11.4457L18.683 5.16707C18.745 5.13017 18.783 5.06315 18.7835 4.99105L18.7997 0.7403C18.7997 0.626333 18.7076 0.533596 18.5936 0.533596L0.298341 0.541417C0.184377 0.541417 0.0921998 0.634154 0.0927586 0.748116L0.111193 7.50109C0.111193 7.61507 0.20393 7.70666 0.317895 7.70666L10.6222 7.66866C11.1127 7.667 11.2909 8.31448 10.8686 8.56364L0.152534 14.8926C0.0905241 14.9289 0.0525363 14.9948 0.0514188 15.0669L2.22321e-05 18.1171C-0.00165372 18.2322 0.0916416 18.3266 0.206723 18.326L13.4417 18.2724" fill="#0D0C0D"/>
<path d="M22.4695 19.7311L11.1071 19.6774C11.1071 19.6774 10.6216 23.288 12.9981 24.1248C13.2875 24.2271 13.9819 24.2567 14.3987 24.2701H20.5707C20.5707 24.2701 23.3907 24.2701 24.2835 24.9047C24.9477 25.3768 25.5862 25.9991 24.5684 28.8175C24.5125 28.9717 24.5801 29.1711 24.7253 29.2477C24.8248 29.3002 24.9493 29.3063 25.0834 29.1723C25.4035 28.8522 27.4303 25.4897 25.5633 21.5975C25.5633 21.5975 24.8387 19.9255 22.4695 19.7305V19.7311Z" fill="#0D0C0D"/>
<path d="M18.5327 8.71224C18.5466 8.73406 18.5617 8.75417 18.5768 8.77148C18.6014 8.80051 18.6343 8.82005 18.6673 8.83907C19.1232 9.10217 19.6165 9.29716 20.0377 9.78821C20.4952 10.3217 20.7014 10.8915 20.7997 11.2362C20.9522 11.7697 21.1807 12.4558 21.1047 13.8278C21.0231 15.2915 20.4947 17.1054 18.8126 17.5663C18.2114 17.7311 18.3606 18.0959 18.5132 18.1725C18.5584 18.1953 18.7416 18.2484 18.9707 18.2484C21.0259 18.2484 22.1153 17.7076 22.2198 17.6395C22.2248 17.6361 22.2298 17.6334 22.2354 17.6306C23.9354 16.725 24.3918 16.1244 24.818 14.8462C25.1594 13.8217 25.2449 12.1792 24.5516 10.8452C23.8583 9.51169 22.8058 8.77371 21.1058 8.41618C19.6578 8.11115 18.9813 8.25918 18.6975 8.32345C18.5243 8.36253 18.4377 8.56307 18.5344 8.71224H18.5327Z" fill="#0D0C0D"/>
<path d="M26.0705 9.29881C27.1165 9.29881 27.9644 8.45094 27.9644 7.405C27.9644 6.3591 27.1165 5.51118 26.0705 5.51118C25.0246 5.51118 24.1767 6.3591 24.1767 7.405C24.1767 8.45094 25.0246 9.29881 26.0705 9.29881Z" fill="#0D0C0D"/>
<path d="M116.229 17.5684C114.982 17.5684 114.014 17.1795 113.324 16.4019C112.649 15.6095 112.311 14.5311 112.311 13.1666V2.88828L116.955 2.20599V12.8364C116.955 13.2472 117.051 13.548 117.241 13.7388C117.447 13.9148 117.799 14.0029 118.298 14.0029C118.665 14.0029 119.024 13.9148 119.376 13.7388L119.53 16.8201C118.548 17.3189 117.447 17.5684 116.229 17.5684Z" fill="black"/>
<path d="M103.278 17.5978C102.324 17.5978 101.429 17.3483 100.593 16.8495C99.7707 16.3359 99.1105 15.6463 98.6115 14.7806C98.113 13.9003 97.8635 12.9245 97.8635 11.8534C97.8635 10.797 98.113 9.84323 98.6115 8.99222C99.1105 8.12652 99.7783 7.45157 100.615 6.9674C101.451 6.48318 102.339 6.24109 103.278 6.24109C104.04 6.24109 104.745 6.45382 105.39 6.87932C106.051 7.30487 106.55 7.9431 106.887 8.79415V6.24109H111.509V17.5978H106.887V15.3748C106.154 16.8568 104.95 17.5978 103.278 17.5978ZM104.708 14.1203C105.295 14.1203 105.794 13.9149 106.205 13.5041C106.63 13.0786 106.858 12.5797 106.887 12.0074V11.8314C106.858 11.2445 106.623 10.7456 106.183 10.3348C105.757 9.92395 105.266 9.71853 104.708 9.71853C104.092 9.71853 103.564 9.93861 103.124 10.3788C102.698 10.8043 102.485 11.3179 102.485 11.9194C102.485 12.5357 102.705 13.0566 103.145 13.4821C103.586 13.9076 104.107 14.1203 104.708 14.1203Z" fill="black"/>
<path d="M93.6972 17.5978C92.5233 17.5978 91.4817 17.363 90.572 16.8935C89.677 16.4093 88.9726 15.7343 88.459 14.8687C87.96 14.003 87.7105 13.0199 87.7105 11.9194C87.7105 10.863 87.9747 9.90195 88.5031 9.03624C89.031 8.17053 89.75 7.48824 90.6598 6.98941C91.5695 6.49053 92.5821 6.24109 93.6972 6.24109C95.1202 6.24109 96.2428 6.53455 97.0643 7.12146L96.6465 10.0486C95.8098 9.79921 95.1202 9.67452 94.5775 9.67452C93.8732 9.67452 93.3154 9.87994 92.9047 10.2907C92.4939 10.6869 92.2885 11.2298 92.2885 11.9194C92.2885 12.6091 92.4939 13.1593 92.9047 13.5701C93.3154 13.981 93.8585 14.1864 94.5334 14.1864C95.1202 14.1864 95.8098 14.0616 96.6024 13.8122L97.0207 16.8935C96.5217 17.1429 96.0156 17.319 95.502 17.4217C94.9883 17.5391 94.3869 17.5978 93.6972 17.5978Z" fill="black"/>
<path d="M84.0156 17.5747C82.7829 17.5747 81.822 17.1785 81.1323 16.3862C80.4427 15.5939 80.0979 14.5154 80.0979 13.1509V6.37209H84.7641V12.9528C84.7641 13.2903 84.8519 13.5544 85.0278 13.7451C85.219 13.9212 85.4609 14.0093 85.7545 14.0093C86.0476 14.0093 86.3488 13.9212 86.6566 13.7451L86.899 16.8044C86.576 17.0538 86.1505 17.2446 85.6221 17.3767C85.1089 17.5087 84.573 17.5747 84.0156 17.5747ZM82.431 4.72139C81.7413 4.72139 81.1546 4.50864 80.6704 4.08313C80.2008 3.64294 79.966 3.10739 79.966 2.47646C79.966 1.84553 80.2155 1.31732 80.714 0.891804C81.213 0.466295 81.7855 0.25354 82.431 0.25354C83.1059 0.25354 83.6855 0.473631 84.1698 0.913812C84.6683 1.35399 84.9178 1.87488 84.9178 2.47646C84.9178 3.12206 84.6683 3.65762 84.1698 4.08313C83.6708 4.50864 83.0912 4.72139 82.431 4.72139Z" fill="black"/>
<path d="M66.1684 2.40125H70.8123V8.82792C71.1353 8.05025 71.6196 7.45599 72.2651 7.04519C72.9254 6.61964 73.7175 6.40691 74.6419 6.40691C76.0506 6.40691 77.151 6.91314 77.9436 7.92555C78.7504 8.92331 79.154 10.3099 79.154 12.0853V17.5875H74.5319V11.6231C74.5319 10.9921 74.3924 10.5079 74.114 10.1705C73.8498 9.83298 73.4756 9.66427 72.9913 9.66427C72.6394 9.66427 72.2945 9.78166 71.9568 10.0164C71.6196 10.2365 71.3407 10.5593 71.1206 10.9848C70.9153 11.4103 70.8123 11.8945 70.8123 12.4374V17.5875H66.1684V2.40125Z" fill="black"/>
<path d="M51.7205 6.24109H56.3644V8.46399C57.0688 6.98206 58.2645 6.24109 59.9516 6.24109C60.9349 6.24109 61.8375 6.49053 62.659 6.98941C63.4952 7.47358 64.1483 8.14852 64.6179 9.01423C65.1021 9.87994 65.344 10.8483 65.344 11.9194C65.344 12.9905 65.0945 13.9589 64.5956 14.8246C64.1113 15.6903 63.4511 16.3726 62.6149 16.8715C61.7934 17.3557 60.913 17.5978 59.9739 17.5978C58.301 17.5978 57.0982 16.8568 56.3644 15.3748V21.0532H51.7205V6.24109ZM58.5652 14.1203C59.1666 14.1203 59.6803 13.9003 60.1058 13.4601C60.5312 13.0199 60.7442 12.5063 60.7442 11.9194C60.7442 11.3032 60.5241 10.7823 60.084 10.3568C59.6585 9.93126 59.1519 9.71853 58.5652 9.71853C57.9638 9.71853 57.4501 9.93126 57.0247 10.3568C56.5992 10.7676 56.3862 11.2592 56.3862 11.8314V11.9194C56.3862 12.5357 56.5992 13.0566 57.0247 13.4821C57.4648 13.9076 57.9785 14.1203 58.5652 14.1203Z" fill="black"/>
<path d="M42.6864 17.5978C41.7327 17.5978 40.8377 17.3483 40.0013 16.8495C39.1797 16.3359 38.5194 15.6463 38.0205 14.7806C37.5216 13.9003 37.2722 12.9245 37.2722 11.8534C37.2722 10.797 37.5216 9.84323 38.0205 8.99222C38.5194 8.12652 39.187 7.45157 40.0233 6.9674C40.8597 6.48318 41.7474 6.24109 42.6864 6.24109C43.4494 6.24109 44.1537 6.45382 44.7993 6.87932C45.4596 7.30487 45.9585 7.9431 46.296 8.79415V6.24109H50.9179V17.5978H46.296V15.3748C45.5623 16.8568 44.3591 17.5978 42.6864 17.5978ZM44.117 14.1203C44.7039 14.1203 45.2028 13.9149 45.6137 13.5041C46.0392 13.0786 46.2666 12.5797 46.296 12.0074V11.8314C46.2666 11.2445 46.0318 10.7456 45.5917 10.3348C45.1661 9.92395 44.6746 9.71853 44.117 9.71853C43.5008 9.71853 42.9726 9.93861 42.5324 10.3788C42.1069 10.8043 41.8941 11.3179 41.8941 11.9194C41.8941 12.5357 42.1142 13.0566 42.5544 13.4821C42.9946 13.9076 43.5155 14.1203 44.117 14.1203Z" fill="black"/>
<path d="M28.8116 6.56092H33.4555V8.80587C33.7929 7.94016 34.2478 7.30193 34.8201 6.89108C35.407 6.46558 36.0893 6.25281 36.8669 6.25281V9.80362C35.473 9.80362 35.0842 9.99439 34.4239 10.3025C33.7783 10.596 33.4555 11.0655 33.4555 11.7111V17.4334H28.8116V6.56092Z" fill="black"/>
</svg>
